<?xml version="1.0" standalone="no"?>
<!DOCTYPE svg PUBLIC "-//W3C//DTD SVG 20010904//EN"
 "http://www.w3.org/TR/2001/REC-SVG-20010904/DTD/svg10.dtd">
<svg version="1.0" xmlns="http://www.w3.org/2000/svg"
 width="558.000000pt" height="372.000000pt" viewBox="0 0 558.000000 372.000000"
 preserveAspectRatio="xMidYMid meet">
<metadata>
Created by potrace 1.16, written by Peter Selinger 2001-2019
</metadata>
<g transform="translate(0.000000,372.000000) scale(0.100000,-0.100000)"
fill="#000000" stroke="none">
<path d="M3030 2681 c-119 -24 -259 -67 -370 -113 -52 -22 -118 -49 -146 -61
l-51 -21 117 -115 c124 -123 270 -294 389 -453 39 -54 73 -98 74 -98 9 0 502
51 537 56 152 20 317 58 412 95 63 24 174 85 183 100 6 9 -29 50 -122 142 -66
67 -132 127 -139 127 -4 0 -17 12 -30 26 -14 14 -29 22 -36 18 -6 -4 -8 -3 -5
3 8 12 -26 54 -45 57 -19 3 -78 39 -78 48 0 17 -2 23 -12 35 -12 14 -32 7 -22
-8 3 -5 10 -7 15 -4 5 3 6 -1 3 -10 -6 -14 -8 -13 -20 4 -8 11 -29 24 -48 31
-18 6 -42 20 -51 30 -10 11 -25 20 -33 20 -9 0 -12 3 -9 7 8 8 -61 40 -100 47
-44 7 -93 27 -93 38 0 5 3 7 8 5 4 -3 16 -1 27 4 41 16 -268 8 -355 -10z"/>
<path d="M1273 2677 c-50 -7 -95 -15 -98 -19 -11 -11 41 -169 67 -202 34 -43
158 -117 373 -224 173 -86 257 -122 505 -216 l115 -44 -40 -19 c-39 -18 -40
-20 -39 -67 1 -56 20 -78 82 -96 45 -12 137 -13 178 -1 21 6 36 5 49 -5 37
-27 90 -11 117 37 l17 29 98 -35 c114 -41 117 -41 104 -16 -13 23 -190 259
-229 303 -281 326 -463 472 -662 532 -155 47 -452 67 -637 43z"/>
<path d="M913 2045 c-46 -37 -84 -125 -90 -210 -5 -73 15 -209 44 -294 9 -25
15 -58 15 -73 0 -16 4 -28 9 -28 5 0 9 -5 9 -11 0 -5 -4 -7 -10 -4 -19 12 4
-30 28 -52 44 -38 224 -116 332 -143 38 -10 224 -78 280 -104 19 -8 69 -29
110 -46 41 -17 84 -35 95 -41 19 -8 173 -72 350 -143 44 -18 96 -40 115 -48
19 -8 55 -23 80 -33 54 -22 101 -42 200 -87 41 -19 91 -41 110 -48 19 -8 61
-29 93 -47 33 -18 61 -33 64 -33 3 0 31 -13 62 -28 130 -66 328 -128 472 -148
140 -20 526 -14 674 9 162 25 271 46 300 57 14 5 40 10 56 10 16 0 47 9 69 20
22 11 50 20 64 20 13 0 51 14 84 30 34 17 65 30 69 30 10 0 96 42 103 51 3 3
22 17 44 32 45 30 96 102 96 135 0 13 -9 35 -20 49 -11 14 -20 22 -20 18 0 -5
-9 0 -20 10 -20 18 -23 18 -98 -14 -242 -103 -539 -170 -916 -206 -262 -25
-425 -18 -531 21 l-40 15 -1 117 c0 91 -5 135 -22 197 -71 247 -245 412 -386
365 -63 -20 -149 -121 -130 -152 4 -7 2 -8 -4 -4 -7 4 -13 0 -13 -11 -1 -10
-4 -29 -6 -43 -10 -51 -8 -220 1 -220 6 0 5 -5 -1 -11 -8 -8 -83 17 -275 94
-144 57 -380 151 -523 207 -143 56 -327 131 -410 165 l-150 62 -7 104 c-16
213 -88 378 -201 460 -52 38 -109 39 -154 4z m149 -157 c36 -25 86 -128 99
-206 19 -107 -11 -211 -67 -232 -82 -32 -180 102 -191 261 -12 166 60 246 159
177z m1851 -682 c46 -19 112 -98 139 -165 32 -80 33 -228 1 -287 -46 -85 -134
-92 -209 -17 -70 69 -125 235 -109 323 12 63 42 119 77 140 39 24 57 25 101 6z"/>
</g>
</svg>
